<svg width="54" height="45" viewBox="0 0 54 45" fill="none" xmlns="http://www.w3.org/2000/svg">
<path d="M34.6862 28.2623C34.5404 28.2623 34.3931 28.2442 34.2504 28.2067C33.7383 28.0721 33.3968 27.7166 33.3968 27.3183V20.2503L9.16754 10.0117C8.55073 9.751 8.33934 9.17366 8.6954 8.72215C9.05147 8.27063 9.84005 8.11597 10.4571 8.37653L35.3314 18.8875C35.7305 19.0562 35.9764 19.3679 35.9764 19.7052V24.6907L38.7017 22.2728C39.0095 21.9997 39.5 21.8758 39.9726 21.9514L42.3987 22.3406V16.446L18.1546 6.20622C17.5377 5.94566 17.3262 5.36832 17.6821 4.91672C18.0381 4.46511 18.8268 4.31029 19.4437 4.57085L44.3327 15.0831C44.7319 15.2517 44.9777 15.5634 44.9777 15.9008V23.514C44.9777 23.7998 44.8008 24.0703 44.4966 24.2495C44.1923 24.4288 43.7934 24.4972 43.4121 24.4361L40.1897 23.9192L35.6814 27.9191C35.4315 28.1406 35.064 28.2623 34.6862 28.2623Z" fill="#2490A9"/>
<path d="M53.1021 12.0794C53.0984 12.0728 53.0953 12.066 53.0915 12.0595C53.0845 12.0478 53.0759 12.0365 53.0682 12.0249C52.9579 11.8544 52.7806 11.7081 52.5497 11.6106L27.6732 1.09731C27.2742 0.928664 26.7825 0.928664 26.3835 1.09731L1.68862 11.534C1.4199 11.6083 1.18319 11.7482 1.02842 11.9444C0.88867 12.1215 0.837435 12.3177 0.862408 12.5068V33.4551C0.862408 33.7924 1.10827 34.104 1.50725 34.2727L26.3837 44.7861C26.7827 44.9547 27.2742 44.9547 27.6733 44.7861L52.5497 34.2727C52.9487 34.104 53.1946 33.7923 53.1946 33.4551V12.5284C53.2139 12.3788 53.1846 12.2249 53.1021 12.0794ZM27.0284 3.005L49.3415 12.4351L27.0292 21.8516L4.74071 12.4243L27.0284 3.005ZM3.44165 14.0555L25.7387 23.4864V42.3334L3.44165 32.91V14.0555ZM28.3181 42.3334V23.487L50.6152 14.077V32.91L28.3181 42.3334Z" fill="#353535"/>
<path d="M12.0218 34.2974C11.803 34.2974 11.5813 34.2565 11.3782 34.1707L6.04849 31.9183C5.43167 31.6575 5.22028 31.0802 5.57647 30.6287C5.93265 30.1771 6.72147 30.0226 7.33817 30.2831L12.6678 32.5356C13.2847 32.7963 13.496 33.3737 13.1399 33.8252C12.901 34.128 12.4676 34.2974 12.0218 34.2974Z" fill="#2490A9"/>
<path d="M9.62362 29.4373C9.40484 29.4373 9.18314 29.3964 8.97995 29.3106L6.04898 28.0719C5.43216 27.8112 5.22077 27.2338 5.57696 26.7823C5.93314 26.3308 6.72196 26.1762 7.33866 26.4368L10.2696 27.6755C10.8865 27.9362 11.0978 28.5136 10.7417 28.9651C10.5028 29.2679 10.0693 29.4373 9.62362 29.4373Z" fill="#2490A9"/>
</svg>
